HIERARCHY
ROOT root
{
	OFFSET 0.000000 0.000000 0.000000
	CHANNELS 6 Xposition Yposition Zposition Zrotation Yrotation Xrotation
	JOINT lhip
	{
		OFFSET 0.058581 -0.082280 -0.017664
		CHANNELS 3 Zrotation Yrotation Xrotation
		JOINT lknee
		{
			OFFSET 0.043451 -0.386469 0.008037
			CHANNELS 3 Zrotation Yrotation Xrotation
			JOINT lankle
			{
				OFFSET -0.014790 -0.426874 -0.037428
				CHANNELS 3 Zrotation Yrotation Xrotation
				JOINT ltoe
				{
					OFFSET 0.041054 -0.060286 0.122042
					CHANNELS 3 Zrotation Yrotation Xrotation
					End Site
					{
						OFFSET 0.000000 0.000000 0.000000
					}
				}
			}
		}
	}
	JOINT rhip
	{
		OFFSET -0.060310 -0.090513 -0.013543
		CHANNELS 3 Zrotation Yrotation Xrotation
		JOINT rknee
		{
			OFFSET -0.043257 -0.383688 -0.004843
			CHANNELS 3 Zrotation Yrotation Xrotation
			JOINT rankle
			{
				OFFSET 0.019056 -0.420046 -0.034562
				CHANNELS 3 Zrotation Yrotation Xrotation
				JOINT rtoe
				{
					OFFSET -0.034840 -0.062106 0.130323
					CHANNELS 3 Zrotation Yrotation Xrotation
					End Site
					{
						OFFSET 0.000000 0.000000 0.000000
					}
				}
			}
		}
	}
	JOINT lowerback
	{
		OFFSET 0.004439 0.124404 -0.038385
		CHANNELS 3 Zrotation Yrotation Xrotation
		JOINT upperback
		{
			OFFSET 0.004488 0.137956 0.026820
			CHANNELS 3 Zrotation Yrotation Xrotation
			JOINT chest
			{
				OFFSET -0.002265 0.056032 0.002855
				CHANNELS 3 Zrotation Yrotation Xrotation
				JOINT lowerneck
				{
					OFFSET -0.013390 0.211636 -0.033468
					CHANNELS 3 Zrotation Yrotation Xrotation
					JOINT upperneck
					{
						OFFSET 0.010113 0.088937 0.050410
						CHANNELS 3 Zrotation Yrotation Xrotation
						End Site
						{
							OFFSET 0.000000 0.000000 0.000000
						}
					}
				}
				JOINT lclavicle
				{
					OFFSET 0.071702 0.114000 -0.018898
					CHANNELS 3 Zrotation Yrotation Xrotation
					JOINT lshoulder
					{
						OFFSET 0.122921 0.045205 -0.019046
						CHANNELS 3 Zrotation Yrotation Xrotation
						JOINT lelbow
						{
							OFFSET 0.255332 -0.015649 -0.022946
							CHANNELS 3 Zrotation Yrotation Xrotation
							JOINT lwrist
							{
								OFFSET 0.265709 0.012698 -0.007375
								CHANNELS 3 Zrotation Yrotation Xrotation
								End Site
								{
									OFFSET 0.000000 0.000000 0.000000
								}
							}
						}
					}
				}
				JOINT rclavicle
				{
					OFFSET -0.082954 0.112472 -0.023707
					CHANNELS 3 Zrotation Yrotation Xrotation
					JOINT rshoulder
					{
						OFFSET -0.113228 0.046853 -0.008472
						CHANNELS 3 Zrotation Yrotation Xrotation
						JOINT relbow
						{
							OFFSET -0.260127 -0.014369 -0.031269
							CHANNELS 3 Zrotation Yrotation Xrotation
							JOINT rwrist
							{
								OFFSET -0.269108 0.006794 -0.006027
								CHANNELS 3 Zrotation Yrotation Xrotation
								End Site
								{
									OFFSET 0.000000 0.000000 0.000000
								}
							}
						}
					}
				}
			}
		}
	}
}
MOTION
Frames: 10
Frame Time: 0.033333
0.047219 0.237354 1.019902 97.376382 -1.258252 98.377171 4.937348 -0.476264 -10.698524 -4.180477 -10.162258 3.313126 -2.120857 11.088392 -5.562706 0.000000 -0.000000 0.000000 -5.847089 -6.304089 -7.519948 1.121016 2.763719 0.881464 6.708838 -17.182196 -1.978093 0.000000 -0.000000 0.000000 0.383643 -0.048563 2.598000 -8.080549 1.398727 -7.549457 -4.021230 1.795781 -3.527993 2.983671 -21.743405 -3.064640 2.631599 -8.486502 -16.687652 -9.042811 3.591558 -0.643549 -13.059711 -0.488853 36.037936 -117.720916 -49.338684 141.055660 9.192582 -24.425016 -21.975872 -15.020761 12.825467 -16.320218 -36.123351 19.406749 -39.946851 -6.392295 7.814491 -45.793990 -10.476096 0.706467 -2.687772 
0.045196 0.236863 1.018633 96.411707 -1.182011 97.705823 4.930176 -0.245480 -10.219980 -4.199484 -9.392500 3.739110 -2.029218 10.972041 -5.419267 0.000000 -0.000000 0.000000 -5.952636 -5.866463 -7.410864 1.101529 2.704852 1.385189 6.833182 -16.591921 -1.676077 0.000000 -0.000000 0.000000 0.127827 -0.093566 2.719285 -7.269524 1.199513 -6.393829 -3.686350 1.666880 -3.024786 3.078931 -19.061804 -2.086052 2.257777 -7.406330 -16.338648 -8.260010 3.075807 -0.609368 -14.355005 -1.502765 34.196884 -118.187849 -49.939058 141.703758 5.365020 -24.666558 -24.853270 -13.801878 12.782689 -15.904483 -33.447796 21.638754 -39.229908 -10.561163 12.468724 -47.094692 -10.281119 1.090064 -5.926017 
0.042206 0.235679 1.018018 95.648952 -1.065161 96.545110 4.775285 0.052548 -9.519238 -4.063330 -8.922807 4.598853 -2.189562 10.651998 -5.410103 0.000000 -0.000000 0.000000 -5.934492 -5.642216 -6.797356 0.971806 2.507821 1.933254 6.959018 -15.781419 -1.635630 0.000000 -0.000000 0.000000 0.124728 -0.213818 3.979095 -6.594722 0.638748 -5.771193 -3.400142 1.400748 -2.456911 3.227581 -15.933503 -1.656137 1.590344 -6.168952 -15.404210 -7.628130 2.170574 -0.698686 -15.767870 -2.771348 31.632602 -118.542019 -51.330538 142.861851 2.265799 -24.522862 -26.394446 -12.347326 12.820113 -16.201722 -29.441381 24.467677 -37.596477 -15.323359 18.856235 -47.802312 -10.426710 1.603916 -10.345615 
0.037364 0.234679 1.018320 95.239523 -0.972087 95.126717 4.554889 -0.017532 -9.165407 -3.870136 -8.248769 6.404264 -2.441357 9.968855 -5.730071 0.000000 -0.000000 0.000000 -5.909499 -5.440199 -6.094353 0.793508 1.833487 2.850800 6.797137 -14.631248 -1.964091 0.000000 -0.000000 0.000000 0.133203 -0.116716 5.975931 -5.723720 -0.249400 -5.022531 -3.210094 0.680489 -2.271377 3.728427 -12.056774 -2.142448 0.646646 -5.873212 -14.162322 -7.584527 1.073288 -0.735529 -17.030041 -4.204254 28.723476 -117.693353 -54.317447 141.952753 -1.393700 -24.893089 -28.360598 -10.029316 12.356202 -16.838314 -24.481812 28.699864 -34.964828 -21.362166 26.237372 -48.472710 -9.578715 2.099661 -16.426807 
0.031954 0.234105 1.018128 94.450648 -0.853170 94.071781 4.374761 0.416624 -9.111797 -3.649662 -7.736970 8.114616 -2.584845 9.381498 -6.205815 0.000000 -0.000000 0.000000 -5.804744 -5.118559 -6.150089 0.527476 1.420886 4.222273 6.544672 -13.420849 -2.262006 0.000000 -0.000000 0.000000 0.041179 -0.097716 7.384778 -4.764503 -0.772718 -4.003384 -2.803753 0.134283 -1.916646 3.670627 -9.048036 -2.623088 -0.186852 -5.450692 -13.525632 -7.681958 -0.253338 -1.186586 -19.449563 -5.776538 25.965986 -114.522609 -59.672381 137.964661 -2.066693 -22.816226 -28.938560 -7.874616 12.400167 -17.024335 -19.716367 32.723666 -32.344589 -25.967729 32.062201 -48.120317 -8.244720 2.007163 -20.991789 
0.026069 0.233833 1.018206 93.854172 -0.685567 93.099372 4.278490 0.839048 -9.165851 -3.439352 -7.488516 9.714614 -2.734795 8.959470 -6.539887 0.000000 -0.000000 0.000000 -5.589391 -5.031633 -6.294059 0.185959 1.232826 5.516517 6.473242 -12.516349 -2.412244 0.000000 -0.000000 0.000000 0.267111 -0.179890 8.984589 -4.153026 -1.273746 -3.342934 -2.298680 -0.215171 -1.568697 2.878707 -7.344167 -3.134083 -0.376177 -4.546808 -13.039699 -7.018143 -2.135383 -1.440407 -22.952806 -7.905387 22.731506 -105.501993 -66.452098 127.935787 -0.012994 -20.518339 -30.421883 -7.714421 13.264135 -17.160766 -14.094091 35.761156 -29.664273 -26.603200 34.231203 -45.485289 -8.243328 1.598316 -24.205122 
0.019487 0.234254 1.018471 92.941354 -0.516026 92.372195 4.244106 1.118848 -9.290005 -3.235128 -7.016532 10.910680 -2.647272 8.913277 -6.638833 0.000000 -0.000000 0.000000 -5.376820 -4.912335 -6.790066 -0.052838 1.288123 6.670355 6.257981 -11.628126 -2.417200 0.000000 -0.000000 0.000000 0.566299 -0.155087 10.102914 -3.795656 -1.625417 -2.387240 -1.942169 -0.204550 -1.071781 2.325450 -6.197178 -3.688676 0.162794 -3.519779 -13.104860 -6.396569 -4.913189 -2.078254 -26.101021 -10.476666 19.753822 -84.670860 -73.367313 103.790412 2.606964 -17.484923 -33.815503 -7.663402 15.101061 -16.101716 -9.516627 37.914832 -27.949583 -26.545078 33.504434 -45.005363 -9.063147 0.581508 -27.469507 
0.011918 0.234974 1.019220 92.079797 -0.433050 91.527450 4.169033 1.209826 -9.353046 -3.046475 -6.491532 12.124958 -2.716950 8.932019 -6.686266 0.000000 -0.000000 0.000000 -5.244910 -4.745603 -7.240760 -0.287787 1.289469 7.907581 6.087680 -10.778832 -2.419225 0.000000 -0.000000 0.000000 0.833003 0.077873 11.633461 -3.577592 -1.953008 -1.074405 -1.531252 -0.048849 -0.821197 1.491303 -5.571202 -4.591635 1.155603 -2.684344 -13.982368 -5.873702 -8.971656 -2.608245 -28.361642 -13.507894 16.781045 -42.741910 -76.584231 57.257359 5.150745 -14.502549 -37.851968 -7.906870 17.823682 -15.339058 -5.606746 39.196953 -26.716225 -26.514579 31.009806 -45.621219 -9.300106 -0.694908 -30.750108 
0.003247 0.235787 1.019397 91.280427 -0.283864 90.890914 4.282172 1.119365 -9.785967 -2.937172 -5.934538 13.400970 -2.787552 9.082895 -6.579619 0.000000 -0.000000 0.000000 -4.983001 -4.467846 -8.108906 -0.516913 1.451728 9.392612 5.777957 -10.187367 -2.554709 0.000000 -0.000000 0.000000 1.153802 0.337103 13.654579 -3.429997 -2.256232 -0.111960 -1.054235 0.130744 -0.921861 0.434716 -5.032711 -6.269454 2.165199 -1.834055 -14.222612 -5.093107 -13.801748 -3.105132 -29.753908 -16.631973 13.602318 -2.391580 -72.113713 12.181798 8.212180 -11.180390 -41.297739 -7.960285 21.259605 -14.662217 -3.203406 39.617438 -26.450291 -25.764873 28.247352 -45.175881 -9.728655 -2.040058 -32.604455 
-0.005855 0.236690 1.019493 90.475346 -0.127373 91.253208 4.425853 1.267031 -11.304238 -2.835262 -5.295475 14.570864 -2.895572 9.175236 -6.362801 0.000000 -0.000000 0.000000 -4.623648 -4.081954 -10.145444 -0.718558 1.546606 10.974757 5.490715 -9.783182 -2.568454 0.000000 -0.000000 0.000000 1.229044 0.300568 15.025499 -3.242575 -2.385462 0.293776 -0.458867 0.451072 -1.018896 -0.482128 -4.350911 -8.550470 2.725543 -1.191651 -14.153777 -4.804807 -17.944071 -4.044674 -30.228742 -20.112168 10.328773 16.581932 -63.616603 -11.623291 11.578793 -8.011954 -42.253262 -7.162356 24.440320 -14.023614 -2.083333 39.901406 -26.614549 -24.466302 26.007197 -44.550836 -10.904765 -2.897192 -34.193546 
